<?xml version="1.0" encoding="UTF-8"?>
<svg version="1.1" xmlns="http://www.w3.org/2000/svg" width="512" height="512">
<path d="M0 0 C0.83802824 -0.00465992 1.67605649 -0.00931984 2.53947952 -0.01412097 C5.36034008 -0.02611492 8.1807229 -0.01665859 11.00158787 -0.00736332 C13.03928136 -0.01153431 15.07697253 -0.01701052 17.11465937 -0.02368313 C22.72420242 -0.03818726 28.33359917 -0.03387752 33.9431504 -0.02651632 C39.98891938 -0.02179923 46.03465604 -0.03428153 52.08041477 -0.04453373 C63.24309685 -0.06075957 74.4057334 -0.06316111 85.56842104 -0.05822874 C95.88068872 -0.0536743 106.19293899 -0.05426732 116.50520611 -0.06006908 C117.8876492 -0.06082594 119.2700923 -0.06158192 120.6525354 -0.06233703 C122.73566659 -0.0634822 124.81879777 -0.06463208 126.90192895 -0.06579627 C146.27299701 -0.07650379 165.64405925 -0.08122393 185.01512909 -0.07332611 C185.74558067 -0.07302894 186.47603225 -0.07273176 187.22861872 -0.07242559 C193.1606752 -0.06997657 199.0927316 -0.06736502 205.024788 -0.06474145 C228.1662165 -0.05463812 251.30757244 -0.06299502 274.44899082 -0.086236 C300.44036409 -0.11229687 326.43169368 -0.1251597 352.4230805 -0.11804825 C355.19340614 -0.11733217 357.96373178 -0.11665779 360.73405743 -0.1160078 C361.41619672 -0.115838 362.09833602 -0.11566819 362.80114621 -0.11549323 C373.10684724 -0.11318841 383.41250778 -0.12117595 393.71819973 -0.13429928 C405.43581623 -0.14919382 417.15335397 -0.14970079 428.87097424 -0.13222837 C434.85242798 -0.12368835 440.83370005 -0.1216419 446.81514454 -0.13687992 C452.28707906 -0.15064768 457.75867492 -0.14606624 463.23058946 -0.12664068 C465.21370893 -0.12285596 467.19685502 -0.12587314 469.17995095 -0.13625234 C471.86945888 -0.14933155 474.55778215 -0.13792031 477.24723816 -0.12025452 C478.02259349 -0.12990503 478.79794882 -0.13955554 479.59679976 -0.14949849 C484.77779529 -0.07931299 487.75824532 1.01146933 491.68653965 4.38031673 C494.64215721 8.14235126 495.06244879 10.95245932 495.06685638 15.67913628 C495.07529633 16.95683071 495.08373627 18.23452515 495.09243196 19.55093759 C495.08663685 20.96663491 495.08055583 22.38233108 495.0742197 23.79802608 C495.07839225 25.30362138 495.08386934 26.80921354 495.09053952 28.31479985 C495.10502326 32.45355638 495.10074031 36.59211427 495.0933727 40.73088181 C495.08865057 45.19381888 495.1011424 49.65671239 495.11139011 54.11963558 C495.12860212 62.863375 495.12941316 71.60704264 495.12417721 80.35079461 C495.1201388 87.45637193 495.12157515 94.56192801 495.12692547 101.66750431 C495.12767389 102.67810138 495.12842231 103.68869844 495.12919341 104.72991966 C495.13072486 106.78282261 495.13226321 108.83572555 495.13380838 110.88862849 C495.14754207 130.14817019 495.14208959 149.4076713 495.13062317 168.66721208 C495.12068949 186.29386557 495.13363226 203.92041412 495.15755736 221.54705142 C495.18192902 239.63874816 495.19156102 257.73039598 495.18490463 275.82210881 C495.18140816 285.9821872 495.1836727 296.14218486 495.20115566 306.30225086 C495.21585347 314.95116345 495.21654484 323.59993844 495.19908475 332.24884825 C495.19055243 336.66276831 495.18847943 341.07644232 495.20373631 345.49034977 C495.21752719 349.5300991 495.21289297 353.5693903 495.19349707 357.60911275 C495.18971946 359.07137394 495.19270952 360.53367135 495.20310872 361.99590044 C495.21623342 363.98244945 495.20233889 365.96912206 495.1871109 367.95565605 C495.18700356 369.05945073 495.18689623 370.16324541 495.18678564 371.30048841 C494.43084207 375.95455152 492.13008412 379.11174735 488.62403965 382.19281673 C484.44823986 384.75217789 480.40836552 384.52251519 475.68164444 384.5117445 C474.43819385 384.51482345 474.43819385 384.51482345 473.16962305 384.5179646 C470.36768601 384.52365816 467.56579777 384.52217446 464.76385593 384.52075863 C462.74439017 384.52334091 460.72492491 384.52635369 458.70546037 384.52976203 C453.13704838 384.53785129 447.56864927 384.53962267 442.0002321 384.5403595 C436.0021555 384.5422067 430.00408564 384.5497523 424.00601292 384.55649471 C410.19763203 384.57080122 396.38925293 384.5766062 382.58086646 384.58118666 C375.75952648 384.58352157 368.93818734 384.58712409 362.11684802 384.59088203 C338.77350591 384.6037179 315.43016426 384.6144374 292.0868187 384.61788464 C290.6211472 384.61810627 289.15547571 384.61832805 287.68980421 384.61854999 C286.22056436 384.61877063 284.7513245 384.61899111 283.28208464 384.61921144 C280.33446483 384.61965399 277.38684501 384.62010111 274.4392252 384.62055111 C273.70838549 384.6206605 272.97754578 384.62076989 272.22455942 384.6208826 C248.52064653 384.6245142 224.81676421 384.64043796 201.11286303 384.66374147 C176.06030955 384.68832589 151.00777354 384.70205682 125.95520765 384.70325255 C123.20619539 384.70342401 120.45718314 384.70363944 117.70817089 384.70388699 C117.03127119 384.70394275 116.3543715 384.70399852 115.65695969 384.70405598 C104.75414244 384.7052076 93.8513565 384.71623891 82.94854983 384.73077404 C71.99429433 384.74512549 61.04007377 384.74813073 50.08581062 384.74033406 C44.1489508 384.73641688 38.21219657 384.73740913 32.27534962 384.75139141 C26.8441021 384.7640663 21.41304022 384.76298951 15.9817932 384.7508007 C14.01341592 384.74883254 12.04502578 384.75197332 10.07666662 384.76064506 C7.40720294 384.77166412 4.73840293 384.76430177 2.06895828 384.75225353 C0.91469382 384.76364632 0.91469382 384.76364632 -0.26288912 384.77526927 C-5.02339965 384.72868132 -8.27299193 383.90409299 -12.31346035 381.38031673 C-16.38038513 376.87372441 -17.43796412 374.45286995 -17.44768143 368.45064068 C-17.45213927 367.17891939 -17.45659711 365.9071981 -17.46119004 364.5969398 C-17.46110074 363.17241684 -17.46091087 361.74789387 -17.46063137 360.32337093 C-17.46392896 358.82036788 -17.46765431 357.3173657 -17.47177285 355.81436467 C-17.48181289 351.66889128 -17.48551286 347.52343236 -17.48816216 343.37794852 C-17.49205928 338.91292658 -17.50163801 334.44791617 -17.51037502 329.98290157 C-17.53015614 319.19236585 -17.54020769 308.40182917 -17.54910281 297.61127985 C-17.55348299 292.53343957 -17.55885049 287.45560034 -17.56409168 282.37776089 C-17.58110555 265.50406136 -17.5956006 248.63036249 -17.60284042 231.75665569 C-17.60475041 227.37583827 -17.60667073 222.99502085 -17.60862637 218.61420345 C-17.60911011 217.52533393 -17.60959385 216.4364644 -17.61009225 215.31459883 C-17.6183958 197.66836298 -17.64373751 180.02219484 -17.67620704 162.37598857 C-17.70925024 144.27083623 -17.7272867 126.16571833 -17.73048466 108.06053567 C-17.7326523 97.89034055 -17.74143789 87.72024418 -17.76694584 77.55007839 C-17.78861544 68.89012763 -17.79672174 60.2302996 -17.78697906 51.57032481 C-17.78242348 47.15034006 -17.7843933 42.73060872 -17.8037405 38.31065845 C-17.82129559 34.26525464 -17.8204372 30.22029055 -17.80484321 26.17488256 C-17.80245544 24.71050619 -17.80685102 23.24609997 -17.81867186 21.78176937 C-17.83373818 19.79235282 -17.82175937 17.80278639 -17.80844498 15.81335735 C-17.80942179 14.70793646 -17.81039859 13.60251556 -17.811405 12.46359706 C-17.03035819 7.62734415 -14.81565227 4.62712994 -11.08305162 1.52908653 C-7.37649964 -0.0083154 -3.946049 -0.03418699 0 0 Z M12.68653965 30.38031673 C12.68653965 136.97031673 12.68653965 243.56031673 12.68653965 353.38031673 C161.84653965 353.38031673 311.00653965 353.38031673 464.68653965 353.38031673 C464.68653965 246.79031673 464.68653965 140.20031673 464.68653965 30.38031673 C315.52653965 30.38031673 166.36653965 30.38031673 12.68653965 30.38031673 Z " fill="#000000" transform="translate(17.31346035003662,63.619683265686035)"/>
<path d="M0 0 C0.86745346 -0.00700928 1.73490692 -0.01401855 2.62864685 -0.02124023 C5.48461301 -0.03878706 8.3395811 -0.02720828 11.19555664 -0.01367188 C13.18803598 -0.01636799 15.18051404 -0.0202514 17.17298889 -0.02526855 C21.34494579 -0.03115933 25.51655962 -0.02261502 29.68847656 -0.00390625 C35.02610855 0.01886808 40.3629353 0.00576699 45.70053768 -0.01819611 C49.81419395 -0.03267804 53.9276606 -0.02803683 58.04132271 -0.01768494 C60.00883645 -0.01502351 61.97636762 -0.0182668 63.94386101 -0.02760315 C66.69871208 -0.03780651 69.45227562 -0.02221436 72.20703125 0 C73.01400452 -0.00809692 73.82097778 -0.01619385 74.65240479 -0.02453613 C79.9504795 0.05427756 84.15336435 0.86960914 88.16821289 4.51757812 C92.07869107 9.73233178 92.75238101 14.93463267 92.68579102 21.28515625 C92.69280029 22.12203476 92.69980957 22.95891327 92.70703125 23.82115173 C92.7245139 26.56405664 92.71302351 29.30591429 92.69946289 32.04882812 C92.70216061 33.96879269 92.70604536 35.88875591 92.71105957 37.80871582 C92.71694144 41.82329375 92.70843402 45.83751453 92.68969727 49.85205078 C92.66690856 54.98327314 92.68003869 60.11365847 92.70398712 65.24485016 C92.71848059 69.20670819 92.71382285 73.16836963 92.70347595 77.13023376 C92.70081847 79.02156169 92.70404378 80.9129078 92.71339417 82.80421448 C92.72361849 85.45328665 92.7079775 88.10102639 92.68579102 90.75 C92.69388794 91.52218369 92.70198486 92.29436737 92.71032715 93.08995056 C92.62562921 98.5826494 91.32141954 102.96652531 88.16821289 107.51757812 C84.02682805 111.1606736 79.84336552 112.1852608 74.37524414 111.89648438 C69.29122179 111.02365222 66.22438701 108.81242293 62.9934082 104.85131836 C59.72073764 98.79460648 60.68191443 91.43159653 60.77758789 84.74023438 C60.78505729 83.2032495 60.79074692 81.66625504 60.79473877 80.1292572 C60.80994036 76.10294858 60.84917366 72.07722606 60.89355469 68.05114746 C60.93462653 63.9352206 60.95277509 59.81919814 60.97290039 55.703125 C61.01567435 47.64100843 61.08385785 39.57936639 61.16821289 31.51757812 C58.19821289 31.51757812 55.22821289 31.51757812 52.16821289 31.51757812 C52.17820564 32.75333336 52.17820564 32.75333336 52.18840027 34.01405334 C52.24863469 41.79669548 52.29424973 49.57922379 52.32364941 57.36203861 C52.33927246 61.36279854 52.36044877 65.36336504 52.39453125 69.36401367 C52.42724537 73.22844265 52.44509116 77.09268615 52.45284462 80.95724297 C52.45836659 82.42797195 52.46914959 83.89869136 52.48540306 85.3693409 C52.50733858 87.43728302 52.51017325 89.50446911 52.50878906 91.57250977 C52.51878181 93.33456505 52.51878181 93.33456505 52.52897644 95.13221741 C52.04098649 99.71145495 50.73939928 103.73450146 47.63305664 107.25976562 C42.14300618 111.33167006 38.93323131 112.14502503 32.16821289 111.51757812 C27.44942601 109.82593754 24.96238472 107.65709195 22.16821289 103.51757812 C21.02475191 100.08719518 21.04809689 97.46126062 21.0546875 93.84301758 C21.05454147 93.16958313 21.05439545 92.49614868 21.054245 91.80230713 C21.05494114 89.57845834 21.06271957 87.35469352 21.07055664 85.13085938 C21.07242188 83.58815049 21.07384528 82.04544101 21.07484436 80.50273132 C21.0786612 76.44373945 21.08848438 72.38478339 21.09954834 68.32580566 C21.10978037 64.18335454 21.11434582 60.04089762 21.11938477 55.8984375 C21.13010739 47.77146794 21.14717382 39.64452749 21.16821289 31.51757812 C18.19821289 31.51757812 15.22821289 31.51757812 12.16821289 31.51757812 C12.17487473 32.32666626 12.18153656 33.13575439 12.18840027 33.96936035 C12.24867864 41.61924529 12.29427188 49.26901398 12.32364941 56.91907501 C12.33926077 60.85142708 12.36041538 64.7835818 12.39453125 68.71582031 C12.42728751 72.51541567 12.44509992 76.31482199 12.45284462 80.11454773 C12.45835911 81.55933098 12.46912721 83.00410467 12.48540306 84.44880676 C12.67195535 101.70460313 12.67195535 101.70460313 7.75138855 107.05944824 C3.44439322 110.85622932 -0.07940776 111.82644769 -5.77319336 111.73242188 C-10.34155028 111.25564838 -13.13296437 109.29194927 -16.14428711 105.95507812 C-19.14375963 101.62250671 -18.99223233 98.16937293 -19.00878906 93.03222656 C-19.01536026 92.15399734 -19.02193146 91.27576813 -19.02870178 90.3709259 C-19.04845798 87.45626749 -19.06010308 84.54166069 -19.07006836 81.62695312 C-19.07618165 80.13499294 -19.07618165 80.13499294 -19.08241844 78.61289215 C-19.10328996 73.34756171 -19.1175865 68.08225741 -19.12695312 62.81689453 C-19.1380145 57.37825231 -19.1724083 51.94001957 -19.21212482 46.50152206 C-19.2382734 42.3201827 -19.24664345 38.1389411 -19.2502346 33.95752716 C-19.2551058 31.95287564 -19.26673491 29.94822864 -19.2852726 27.94365692 C-19.30962445 25.13561103 -19.30870611 22.32862701 -19.30175781 19.52050781 C-19.31456787 18.69430435 -19.32737793 17.86810089 -19.34057617 17.01686096 C-19.29289905 11.72276414 -18.43628707 8.64714959 -14.83178711 4.51757812 C-9.95914948 0.28672753 -6.16037715 -0.06165669 0 0 Z " fill="#000000" transform="translate(275.831787109375,127.482421875)"/>
<path d="M0 0 C1.18545914 -0.00637985 2.37091827 -0.0127597 3.59230042 -0.01933289 C5.51102211 -0.02100212 5.51102211 -0.02100212 7.46850586 -0.02270508 C8.80407242 -0.02592228 10.13963863 -0.0292867 11.47520447 -0.03279114 C14.27693496 -0.03877593 17.07863466 -0.04063194 19.88037109 -0.04003906 C23.44180256 -0.03993802 27.00303207 -0.05353297 30.56441593 -0.07081127 C33.32623672 -0.08202811 36.08801039 -0.08395525 38.84985161 -0.08342934 C40.79217386 -0.08515936 42.73448139 -0.09594648 44.67677307 -0.10697937 C58.49045159 -0.07178374 70.39568646 1.5383823 80.87084961 11.20776367 C89.95136557 20.80348621 92.63171567 31.25828348 92.39819336 44.02416992 C91.82157319 56.53481947 84.60320474 64.76923333 76.12084961 73.14526367 C76.53447754 73.54841797 76.94810547 73.95157227 77.37426758 74.36694336 C79.25341307 76.20440042 81.12465997 78.04970677 82.99584961 79.89526367 C83.64682617 80.52948242 84.29780273 81.16370117 84.96850586 81.81713867 C85.59370117 82.43588867 86.21889648 83.05463867 86.86303711 83.69213867 C87.43908691 84.25771484 88.01513672 84.82329102 88.60864258 85.40600586 C92.21952617 89.55904666 92.55544526 93.26404009 92.43725586 98.60620117 C91.82192579 103.54403507 89.72257293 106.81049424 85.87084961 110.02026367 C81.22092319 111.9225063 77.08503661 112.47262817 72.12084961 111.64526367 C65.68646982 108.42807378 61.03121886 103.15095794 56.47631836 97.68432617 C46.21114334 85.26991845 46.21114334 85.26991845 31.67944336 79.48901367 C25.12153517 79.08114846 18.64080969 79.35736664 12.12084961 80.14526367 C12.13656006 80.71970215 12.15227051 81.29414063 12.16845703 81.88598633 C12.23120474 84.51397676 12.26996467 87.14180904 12.30834961 89.77026367 C12.33348633 90.67389648 12.35862305 91.5775293 12.38452148 92.50854492 C12.460893 99.48380976 11.38464759 103.71976583 6.49584961 108.95776367 C2.71359142 111.85780779 -1.1910407 112.41525952 -5.87915039 112.14526367 C-11.77689495 110.47423605 -14.4043988 107.94859675 -17.87915039 103.14526367 C-19.50351675 99.89653095 -19.04451358 96.32245462 -19.05615234 92.75170898 C-19.06272354 91.88323334 -19.06929474 91.01475769 -19.07606506 90.1199646 C-19.09582069 87.2377718 -19.10746626 84.35563118 -19.11743164 81.47338867 C-19.12354493 79.99797733 -19.12354493 79.99797733 -19.12978172 78.4927597 C-19.15065305 73.28578398 -19.16494964 68.0788347 -19.17431641 62.87182617 C-19.18537747 57.49371601 -19.21977094 52.11601999 -19.25948811 46.73805618 C-19.28563798 42.60303988 -19.29400685 38.46812242 -19.29759789 34.3330307 C-19.30246878 32.35070756 -19.31409704 30.36838898 -19.33263588 28.38614655 C-19.35699046 25.60923004 -19.35606892 22.83338716 -19.34912109 20.05639648 C-19.36193115 19.23954376 -19.37474121 18.42269104 -19.38793945 17.58108521 C-19.33984118 12.29850636 -18.3409077 9.35688171 -14.87915039 5.14526367 C-9.98848512 0.6213983 -6.52182565 0.02386707 0 0 Z M12.12084961 31.14526367 C12.12084961 37.08526367 12.12084961 43.02526367 12.12084961 49.14526367 C17.8504716 49.21426447 23.57864265 49.27395913 29.30834961 49.31005859 C31.25599055 49.32511267 33.20359777 49.34556047 35.15112305 49.37158203 C37.95622089 49.4081142 40.76086915 49.425024 43.56616211 49.43823242 C44.43201935 49.45371628 45.29787659 49.46920013 46.18997192 49.4851532 C51.24471509 49.48654931 54.77140106 49.01731116 59.12084961 46.14526367 C61.46253725 42.63273221 61.61708638 41.28057012 61.12084961 37.14526367 C58.9699451 33.80765322 57.91672162 32.41055434 54.12084961 31.14526367 C52.72429502 31.05937064 51.32399184 31.02753652 49.92480469 31.03173828 C48.6638372 31.03185158 48.6638372 31.03185158 47.37739563 31.03196716 C46.47418076 31.03712845 45.57096588 31.04228973 44.64038086 31.04760742 C43.71239182 31.04902237 42.78440277 31.05043732 41.82829285 31.05189514 C38.86327903 31.0574943 35.89834062 31.07004663 32.93334961 31.08276367 C30.92358507 31.08777878 28.91381936 31.09234167 26.90405273 31.09643555 C21.97628929 31.10746346 17.04858224 31.1247275 12.12084961 31.14526367 Z " fill="#000000" transform="translate(355.879150390625,271.854736328125)"/>
<path d="M0 0 C1.55730583 -0.01441132 1.55730583 -0.01441132 3.14607239 -0.02911377 C4.82113106 -0.03548859 4.82113106 -0.03548859 6.5300293 -0.04199219 C7.68415817 -0.04769226 8.83828705 -0.05339233 10.02738953 -0.05926514 C12.46925949 -0.06870909 14.91114216 -0.07524672 17.35302734 -0.07910156 C21.07957305 -0.08880295 24.80556621 -0.11983124 28.53198242 -0.15136719 C30.90632811 -0.15789796 33.28067774 -0.16314814 35.6550293 -0.16699219 C36.76566238 -0.17933899 37.87629547 -0.19168579 39.02058411 -0.20440674 C45.72141858 -0.18521172 51.24478968 0.10724938 56.53393555 4.66113281 C60.58506738 10.02539013 60.9437804 13.95024227 60.95288086 20.48461914 C60.96032822 21.75829094 60.96032822 21.75829094 60.96792603 23.05769348 C60.98254258 25.86952523 60.98934899 28.68130055 60.99487305 31.49316406 C61.00062513 33.44748435 61.00638286 35.40180462 61.012146 37.35612488 C61.02265469 41.45592512 61.02849815 45.55570576 61.03198242 49.65551758 C61.03746535 54.9046105 61.06148969 60.1534438 61.08995438 65.40245533 C61.10859403 69.44053398 61.11378708 73.47855028 61.1153183 77.51666832 C61.1183426 79.45152899 61.12636362 81.38638863 61.13950348 83.32120705 C61.15659085 86.03082554 61.15467711 88.73981212 61.14819336 91.44946289 C61.15740814 92.24604309 61.16662292 93.04262329 61.17611694 93.86334229 C61.13494082 99.36683258 60.11233042 103.55589234 56.3269043 107.80566406 C51.60949182 111.54706017 48.48861211 112.27803279 42.58349609 112.32226562 C41.02619026 112.33667694 41.02619026 112.33667694 39.43742371 112.35137939 C38.32071793 112.35562927 37.20401215 112.35987915 36.0534668 112.36425781 C34.89933792 112.36995789 33.74520905 112.37565796 32.55610657 112.38153076 C30.1142366 112.39097471 27.67235393 112.39751234 25.23046875 112.40136719 C21.50392304 112.41106858 17.77792988 112.44209686 14.05151367 112.47363281 C11.67716798 112.48016358 9.30281836 112.48541376 6.9284668 112.48925781 C5.81783371 112.50160461 4.70720062 112.51395142 3.56291199 112.52667236 C-3.62161143 112.50609178 -8.84429113 111.97958648 -14.52075195 107.22363281 C-18.36105547 102.52992852 -18.50536585 98.48313497 -18.4987793 92.54052734 C-18.50549652 91.67175964 -18.51221375 90.80299194 -18.51913452 89.90789795 C-18.53812908 87.03652219 -18.54203945 84.16537999 -18.54418945 81.29394531 C-18.55061634 79.29621281 -18.55734462 77.29848125 -18.56436157 75.30075073 C-18.57633797 71.11275043 -18.58004202 66.92483263 -18.57885742 62.73681641 C-18.57865421 57.37442613 -18.60595735 52.01256569 -18.64040184 46.65030098 C-18.66265617 42.52385027 -18.66669541 38.39752737 -18.66563797 34.2710228 C-18.6679961 32.29429168 -18.67683153 30.31755715 -18.6923027 28.34088516 C-18.71193295 25.57372346 -18.70613635 22.80770812 -18.6940918 20.04052734 C-18.70533081 19.22681671 -18.71656982 18.41310608 -18.72814941 17.57473755 C-18.66995177 12.30411272 -17.65873521 9.36421282 -14.20825195 5.16113281 C-9.55309885 0.85511619 -6.20811116 0.04650245 0 0 Z M12.79174805 31.16113281 C12.79174805 47.66113281 12.79174805 64.16113281 12.79174805 81.16113281 C18.40174805 81.16113281 24.01174805 81.16113281 29.79174805 81.16113281 C29.79174805 64.66113281 29.79174805 48.16113281 29.79174805 31.16113281 C24.18174805 31.16113281 18.57174805 31.16113281 12.79174805 31.16113281 Z " fill="#000000" transform="translate(82.208251953125,271.8388671875)"/>
<path d="M0 0 C1.8948539 -0.00574036 1.8948539 -0.00574036 3.82798767 -0.01159668 C6.49209051 -0.01431271 9.15471335 -0.00900554 11.81860352 0.00976562 C15.22049057 0.03257863 18.62111669 0.01940476 22.0229578 -0.00452423 C25.28618284 -0.02250913 28.54925847 -0.0098933 31.8125 0 C33.02825211 -0.00809692 34.24400421 -0.01619385 35.49659729 -0.02453613 C46.22481811 0.09431245 46.22481811 0.09431245 50.83984375 4.53125 C54.98216442 9.58758316 55.41924775 13.21002616 55.35742188 19.47070312 C55.36443115 20.34951645 55.37144043 21.22832977 55.37866211 22.1337738 C55.39620901 25.02700782 55.38463111 27.91925674 55.37109375 30.8125 C55.37378961 32.8297952 55.37767282 34.84708913 55.38269043 36.86437988 C55.388581 41.08760985 55.3800366 45.3105009 55.36132812 49.53369141 C55.338539 54.9409203 55.35166442 60.34735498 55.37561798 65.75455475 C55.39008777 69.91878214 55.38546451 74.08282194 55.37510681 78.24705505 C55.3724428 80.24051508 55.37569781 82.23399226 55.38502502 84.22743225 C55.39520997 87.01601121 55.37966239 89.8033128 55.35742188 92.59179688 C55.3655188 93.41171616 55.37361572 94.23163544 55.38195801 95.07640076 C55.30416408 100.35447531 54.29604579 103.32001622 50.83984375 107.53125 C46.80526741 111.07678678 43.27018571 111.84064271 37.89453125 111.7421875 C33.19699269 111.25993069 30.07026802 109.02790739 27.02734375 105.59375 C24.17773651 101.60429987 23.70960067 98.80722648 23.7421875 93.984375 C23.74541016 93.14003906 23.74863281 92.29570312 23.75195312 91.42578125 C23.76452148 90.11673828 23.76452148 90.11673828 23.77734375 88.78125 C23.78185547 87.89308594 23.78636719 87.00492187 23.79101562 86.08984375 C23.80276953 83.90361684 23.82070409 81.71742472 23.83984375 79.53125 C18.22984375 79.53125 12.61984375 79.53125 6.83984375 79.53125 C6.89205078 81.70074219 6.89205078 81.70074219 6.9453125 83.9140625 C6.97346031 85.82811334 7.0007594 87.7421768 7.02734375 89.65625 C7.05248047 90.60757813 7.07761719 91.55890625 7.10351562 92.5390625 C7.160143 97.97529077 6.9571575 101.85898165 3.83984375 106.53125 C-0.83624198 110.8566293 -4.59663457 111.91195933 -10.8125 111.80078125 C-14.68353602 111.35635282 -17.25092707 110.08757732 -20.16015625 107.53125 C-23.87559943 102.16871591 -24.74479114 97.15871057 -24.67773438 90.76367188 C-24.68474365 89.92679337 -24.69175293 89.08991486 -24.69897461 88.22767639 C-24.71645726 85.48477148 -24.70496687 82.74291384 -24.69140625 80 C-24.69410397 78.08003544 -24.69798872 76.16007221 -24.70300293 74.2401123 C-24.7088848 70.22553438 -24.70037738 66.2113136 -24.68164062 62.19677734 C-24.65885192 57.06555498 -24.67198205 51.93516966 -24.69593048 46.80397797 C-24.71042395 42.84211994 -24.70576621 38.88045849 -24.69541931 34.91859436 C-24.69276183 33.02726643 -24.69598714 31.13592033 -24.70533752 29.24461365 C-24.71556185 26.59554147 -24.69992086 23.94780173 -24.67773438 21.29882812 C-24.6858313 20.52664444 -24.69392822 19.75446075 -24.70227051 18.95887756 C-24.61726883 13.44648084 -23.27642929 9.12009722 -20.16015625 4.53125 C-14.09438413 -0.57996353 -7.65979042 -0.05109938 0 0 Z M6.83984375 31.53125 C6.83984375 37.14125 6.83984375 42.75125 6.83984375 48.53125 C12.44984375 48.53125 18.05984375 48.53125 23.83984375 48.53125 C23.83984375 42.92125 23.83984375 37.31125 23.83984375 31.53125 C18.22984375 31.53125 12.61984375 31.53125 6.83984375 31.53125 Z " fill="#000000" transform="translate(184.16015625,127.46875)"/>
<path d="M0 0 C1.26227921 -0.0038269 2.52455841 -0.00765381 3.8250885 -0.01159668 C6.49096913 -0.01431521 9.15537568 -0.00898504 11.82104492 0.00976562 C15.22174256 0.03253248 18.62117564 0.01943853 22.02182674 -0.00452423 C25.28542842 -0.02253602 28.54888175 -0.00988695 31.8125 0 C33.02622787 -0.00809692 34.23995575 -0.01619385 35.49046326 -0.02453613 C42.19940634 0.04958112 46.53700654 0.47770725 51.97265625 4.53125 C54.96800435 7.684248 56.21229593 11.28204384 56.41015625 15.59375 C55.79150501 21.16161114 54.20752211 24.64671696 50.03515625 28.34375 C45.09784384 31.87040172 40.86321211 31.67021973 34.92578125 31.62890625 C34.24177246 31.62789917 33.55776367 31.62689209 32.85302734 31.62585449 C30.30955314 31.6206413 27.76610293 31.60668006 25.22265625 31.59375 C19.53015625 31.573125 13.83765625 31.5525 7.97265625 31.53125 C7.97265625 47.70125 7.97265625 63.87125 7.97265625 80.53125 C13.58265625 80.53125 19.19265625 80.53125 24.97265625 80.53125 C24.91464844 79.108125 24.85664062 77.685 24.796875 76.21875 C24.74994925 74.32294967 24.70445213 72.4271136 24.66015625 70.53125 C24.61826172 69.59667969 24.57636719 68.66210938 24.53320312 67.69921875 C24.41716336 61.06174423 25.56938042 56.60993345 29.97265625 51.53125 C34.64529765 48.13296534 39.37375204 47.6826356 44.97265625 48.53125 C48.46237861 49.61922227 51.02351974 51.17313759 53.13902283 54.20019531 C55.90278243 59.49018905 56.57540502 63.85664457 56.5390625 69.78125 C56.54526108 70.63879883 56.55145966 71.49634766 56.55784607 72.37988281 C56.5649072 74.18162916 56.56183549 75.98344127 56.54907227 77.78515625 C56.5351896 80.5246699 56.56934976 83.26077302 56.60742188 86 C56.60837314 87.76041749 56.60651386 89.52083921 56.6015625 91.28125 C56.61482071 92.08981445 56.62807892 92.89837891 56.64173889 93.73144531 C56.54417354 99.75987877 54.95461238 103.95652756 50.97265625 108.53125 C45.54372734 112.80362693 38.7248308 111.96314991 32.12890625 111.9296875 C30.88645142 111.93255768 29.64399658 111.93542786 28.3638916 111.93838501 C25.07155471 111.94094382 21.77964584 111.92891131 18.48736572 111.91210938 C16.47434933 111.90625492 14.46172529 111.91209009 12.44873047 111.92236328 C8.57110472 111.94091651 4.69405634 111.93864521 0.81640625 111.9296875 C-0.38060913 111.93576019 -1.57762451 111.94183289 -2.81091309 111.9480896 C-13.24883329 111.8600664 -13.24883329 111.8600664 -18.02734375 108.53125 C-22.91612388 103.24608229 -23.18161461 98.96762493 -23.2043457 92.02416992 C-23.2142025 90.72123741 -23.2142025 90.72123741 -23.22425842 89.39198303 C-23.24398156 86.5152274 -23.25565136 83.63852393 -23.265625 80.76171875 C-23.26970053 79.77902826 -23.27377605 78.79633778 -23.27797508 77.78386879 C-23.29883085 72.58337235 -23.31313515 67.38290226 -23.32250977 62.18237305 C-23.33357781 56.8121387 -23.36798379 51.4423183 -23.40768147 46.07223034 C-23.43382881 41.94150523 -23.4421999 37.81087909 -23.44579124 33.68007851 C-23.45066145 31.70054641 -23.46228777 29.72101886 -23.48082924 27.74156761 C-23.50518227 24.9695492 -23.50426277 22.19860635 -23.49731445 19.42651367 C-23.51012451 18.61123199 -23.52293457 17.79595032 -23.53613281 16.95596313 C-23.48796747 11.67604276 -22.48020785 8.74458108 -19.02734375 4.53125 C-13.50634908 -0.77669636 -7.21499392 -0.04805195 0 0 Z " fill="#000000" transform="translate(87.02734375,127.46875)"/>
<path d="M0 0 C4.17714912 2.56630144 7.08733729 5.46686364 9 10 C9.22463989 12.23599243 9.22463989 12.23599243 9.19189453 14.70166016 C9.18296677 16.09428574 9.18296677 16.09428574 9.17385864 17.51504517 C9.16031342 18.51297089 9.14676819 19.51089661 9.1328125 20.5390625 C9.13361957 22.66797019 9.13628336 24.79687783 9.140625 26.92578125 C9.13866595 30.27037642 9.1251622 33.61322305 9.07910156 36.95751953 C8.32538458 51.62768553 8.32538458 51.62768553 14.0546875 64.5234375 C15.35406497 65.69989835 16.66662796 66.86221226 18 68 C24.04096042 61.594372 26.01847359 57.09133784 25.796875 48.33984375 C25.80205139 47.3505336 25.80722778 46.36122345 25.81256104 45.3419342 C25.82437687 42.20608254 25.79009138 39.07308099 25.75 35.9375 C25.73117583 32.79893127 25.72254343 29.66097174 25.73028564 26.52235413 C25.73294067 24.57783471 25.71951246 22.63320224 25.68719482 20.68894958 C25.66566694 13.83537716 26.3126339 7.75999762 31.3125 2.625 C36.30720184 -0.39505227 40.30726081 -1.48927975 46.04296875 -0.53515625 C50.31695171 0.63357761 53.11452645 2.7424721 55.64086914 6.33032227 C57.68669188 11.85408041 57.44770812 17.18208002 57.43359375 23.02734375 C57.4388356 24.28962296 57.44407745 25.55190216 57.44947815 26.85243225 C57.45589289 29.51806992 57.45601418 32.18284874 57.44604492 34.84838867 C57.43456001 38.24904115 57.45476939 41.64865444 57.48396206 45.04917049 C57.5068154 48.31273271 57.4998534 51.57622033 57.49609375 54.83984375 C57.50732773 56.05357162 57.51856171 57.2672995 57.53013611 58.51780701 C57.47442399 65.29587559 57.04508469 69.50140285 53 75 C52.40735352 75.84079102 51.81470703 76.68158203 51.20410156 77.54785156 C50.6056543 78.3209668 50.00720703 79.09408203 49.390625 79.890625 C48.72200439 80.76025879 48.05338379 81.62989258 47.36450195 82.52587891 C46.66671631 83.42483887 45.96893066 84.32379883 45.25 85.25 C40.23527312 91.74946498 35.28368199 98.24268385 30.67578125 105.0390625 C27.68789305 108.53537923 24.22083796 110.33250243 19.6875 110.9375 C14.50600319 111.30577167 11.07994212 110.21474039 7 107 C3.66237553 103.59094777 0.83427161 99.82696086 -2 96 C-2.5559082 95.25572754 -3.11181641 94.51145508 -3.68457031 93.74462891 C-7.29394353 88.90667686 -10.88080134 84.05280522 -14.42382812 79.16601562 C-15.43836406 77.77181444 -16.46240968 76.38445856 -17.49804688 75.00585938 C-21.23471082 69.97181714 -22.11674494 66.76868022 -22.16113281 60.59228516 C-22.17074036 59.51081207 -22.1803479 58.42933899 -22.19024658 57.31509399 C-22.19449646 56.1515036 -22.19874634 54.98791321 -22.203125 53.7890625 C-22.20882507 52.58816986 -22.21452515 51.38727722 -22.22039795 50.1499939 C-22.22984231 47.60977051 -22.23637969 45.0695349 -22.24023438 42.52929688 C-22.24994518 38.64691797 -22.280977 34.7650673 -22.3125 30.8828125 C-22.31902975 28.41406564 -22.32428033 25.945315 -22.328125 23.4765625 C-22.3404718 22.31702057 -22.3528186 21.15747864 -22.36553955 19.96279907 C-22.33761214 9.84023837 -22.33761214 9.84023837 -19 5 C-13.22387719 -0.47211635 -7.69131583 -2.27452588 0 0 Z " fill="#000000" transform="translate(182,273)"/>
<path d="M0 0 C0.90809921 -0.0038269 1.81619843 -0.00765381 2.7518158 -0.01159668 C4.66211055 -0.0143063 6.57244302 -0.00701194 8.48266602 0.00976562 C11.3974914 0.03121429 14.30985928 0.00991928 17.22460938 -0.015625 C19.08724499 -0.01298204 20.94987908 -0.00785772 22.8125 0 C23.67827164 -0.00809692 24.54404327 -0.01619385 25.43605042 -0.02453613 C30.89008953 0.0595504 34.00856035 0.9161174 38.33984375 4.53125 C42.25845858 8.8623506 42.98722763 12.40592884 42.71484375 18.06640625 C42.11959946 21.97889735 40.96851933 24.58442843 38.33984375 27.53125 C32.48035497 31.7550822 26.85423256 32.04632865 19.83984375 31.78125 C18.92203125 31.76320312 18.00421875 31.74515625 17.05859375 31.7265625 C14.8185504 31.67989493 12.57905242 31.60816938 10.33984375 31.53125 C10.33984375 34.50125 10.33984375 37.47125 10.33984375 40.53125 C12.50933594 40.47904297 12.50933594 40.47904297 14.72265625 40.42578125 C16.63670709 40.39763344 18.55077055 40.37033435 20.46484375 40.34375 C21.41617188 40.31861328 22.3675 40.29347656 23.34765625 40.26757812 C28.78388452 40.21095075 32.6675754 40.41393625 37.33984375 43.53125 C41.66700847 48.20926591 42.71436022 51.9672369 42.61328125 58.18359375 C42.16447501 62.03691592 40.79768404 64.58077264 38.33984375 67.53125 C32.39492736 71.90389245 27.63735505 72.03840693 20.40234375 71.78125 C19.43232422 71.76320313 18.46230469 71.74515625 17.46289062 71.7265625 C15.08811024 71.6797688 12.7138436 71.60803706 10.33984375 71.53125 C10.33984375 74.50125 10.33984375 77.47125 10.33984375 80.53125 C11.69078125 80.48484375 13.04171875 80.4384375 14.43359375 80.390625 C16.23565481 80.35308206 18.03774 80.31668462 19.83984375 80.28125 C20.72671875 80.24773437 21.61359375 80.21421875 22.52734375 80.1796875 C28.60130019 80.09036461 33.33921484 80.90774741 38.33984375 84.53125 C42.02174915 88.74086762 42.94256755 92.85536358 42.66015625 98.390625 C41.97335527 102.98046571 40.20162975 105.73409795 36.83984375 108.84375 C32.19323564 111.98021047 27.73638057 111.72301028 22.32421875 111.76953125 C20.99043182 111.78163887 20.99043182 111.78163887 19.62969971 111.79399109 C17.74680525 111.80782043 15.86388584 111.81854773 13.98095703 111.82641602 C11.11441954 111.84360265 8.24904354 111.88749544 5.3828125 111.93164062 C3.55078971 111.94177044 1.71875713 111.95028564 -0.11328125 111.95703125 C-1.39020844 111.98329338 -1.39020844 111.98329338 -2.69293213 112.01008606 C-8.25201558 111.99002352 -12.40775733 111.27648023 -16.66015625 107.53125 C-20.37282538 102.1656472 -21.24480865 97.16038054 -21.17773438 90.76367188 C-21.18474365 89.92679337 -21.19175293 89.08991486 -21.19897461 88.22767639 C-21.21645726 85.48477148 -21.20496687 82.74291384 -21.19140625 80 C-21.19410397 78.08003544 -21.19798872 76.16007221 -21.20300293 74.2401123 C-21.2088848 70.22553438 -21.20037738 66.2113136 -21.18164062 62.19677734 C-21.15885192 57.06555498 -21.17198205 51.93516966 -21.19593048 46.80397797 C-21.21042395 42.84211994 -21.20576621 38.88045849 -21.19541931 34.91859436 C-21.19276183 33.02726643 -21.19598714 31.13592033 -21.20533752 29.24461365 C-21.21556185 26.59554147 -21.19992086 23.94780173 -21.17773438 21.29882812 C-21.1858313 20.52664444 -21.19392822 19.75446075 -21.20227051 18.95887756 C-21.11755448 13.46500527 -19.81043614 9.0850419 -16.66015625 4.53125 C-11.25380027 0.29241856 -6.72291138 -0.06302178 0 0 Z " fill="#000000" transform="translate(405.66015625,127.46875)"/>
<path d="M0 0 C0.77442444 -0.00570007 1.54884888 -0.01140015 2.34674072 -0.01727295 C3.98407636 -0.02670351 5.62143082 -0.0332492 7.25878906 -0.03710938 C9.74318269 -0.04678757 12.22673878 -0.0778171 14.7109375 -0.109375 C16.30728679 -0.11590871 17.90364196 -0.12115773 19.5 -0.125 C20.23361755 -0.1373468 20.96723511 -0.1496936 21.7230835 -0.16241455 C28.01497497 -0.13571527 33.78734594 0.97484594 38.390625 5.578125 C41.55452474 10.68903996 42.4122403 14.03728251 41.55078125 19.98828125 C40.46055502 24.50038542 38.36807579 27.29649 34.55078125 29.85546875 C29.67669747 31.71354489 25.30448638 31.52706849 20.140625 31.390625 C19.16609375 31.37708984 18.1915625 31.36355469 17.1875 31.34960938 C14.79663491 31.31444959 12.40605657 31.26064875 10.015625 31.203125 C10.015625 34.503125 10.015625 37.803125 10.015625 41.203125 C11.53414063 41.15671875 13.05265625 41.1103125 14.6171875 41.0625 C16.62498028 41.02497116 18.63279439 40.9885722 20.640625 40.953125 C21.63964844 40.91960937 22.63867188 40.88609375 23.66796875 40.8515625 C29.63276274 40.77255861 33.39156098 41.00817412 38.015625 45.203125 C41.13080242 49.0015267 42.35346971 52.9417369 42.015625 57.828125 C41.13650848 62.92700082 39.03678746 66.47594981 35.08203125 69.85546875 C30.36466944 71.9287042 25.79074461 71.51757136 20.703125 71.390625 C19.67638672 71.37708984 18.64964844 71.36355469 17.59179688 71.34960938 C15.06618011 71.31436821 12.54083444 71.26056447 10.015625 71.203125 C10.015625 74.503125 10.015625 77.803125 10.015625 81.203125 C12.16771484 81.13351562 12.16771484 81.13351562 14.36328125 81.0625 C16.26820825 81.02496449 18.17315789 80.98856625 20.078125 80.953125 C21.02107422 80.91960937 21.96402344 80.88609375 22.93554688 80.8515625 C29.22772024 80.7638667 32.8852895 81.49370799 38.015625 85.203125 C41.46099933 89.22272839 42.29262951 94.00929053 42.015625 99.203125 C40.69795187 103.88086462 38.75264375 106.61651824 34.953125 109.640625 C30.17884062 112.18013797 26.20073581 112.37700209 20.91015625 112.40625 C19.7131031 112.41480011 19.7131031 112.41480011 18.49186707 112.42352295 C16.80147626 112.43296745 15.11106709 112.43950475 13.4206543 112.44335938 C10.85497105 112.45302388 8.29010327 112.4840345 5.72460938 112.515625 C4.07812973 112.52215972 2.43164438 112.52740835 0.78515625 112.53125 C-0.35278633 112.5497702 -0.35278633 112.5497702 -1.51371765 112.56866455 C-7.25686958 112.54506944 -13.11592925 111.98742138 -17.42355537 107.80616474 C-21.14387869 102.9174705 -21.70111793 99.10599684 -21.61547852 93.05834961 C-21.62263382 92.16963669 -21.62978912 91.28092377 -21.63716125 90.36528015 C-21.65398939 87.44481077 -21.63468184 84.52588908 -21.61328125 81.60546875 C-21.61411042 79.56718316 -21.6165716 77.52889764 -21.62059021 75.49061584 C-21.62344409 71.22620431 -21.60878546 66.9623192 -21.58129883 62.69799805 C-21.54719538 57.23808704 -21.55324553 51.77911568 -21.5719614 46.31915951 C-21.58254007 42.11288144 -21.57358599 37.90682125 -21.55857658 33.70056343 C-21.55340216 31.68757334 -21.55386758 29.67456043 -21.56012154 27.66157341 C-21.56558501 24.84672132 -21.5451631 22.03320558 -21.51782227 19.21850586 C-21.52434814 18.39080688 -21.53087402 17.56310791 -21.53759766 16.71032715 C-21.45046374 11.42226075 -20.48100794 8.40291977 -16.984375 4.203125 C-11.52033942 0.2416992 -6.59084567 0.03776425 0 0 Z " fill="#000000" transform="translate(277.984375,271.796875)"/>
</svg>
