<?xml version="1.0" encoding="UTF-8"?>
<svg version="1.1" xmlns="http://www.w3.org/2000/svg" width="512" height="512">
<path d="M0 0 C3.05865206 0.22783256 3.91449732 0.55922871 6.4375 2.5 C7.30387413 3.53153575 8.15588263 4.57517335 9 5.625 C10.41377442 7.16931941 11.83078511 8.71067884 13.25 10.25 C17.15551361 14.61233646 20.87423575 19.09905632 24.55859375 23.6484375 C27.28530483 26.97284365 30.07080022 30.24098035 32.875 33.5 C40.14500395 41.95239092 47.4047966 50.41075697 54.4375 59.0625 C58.39508188 63.92629025 62.46542446 68.68381231 66.55834961 73.43334961 C69.58945289 76.95798919 72.56985316 80.51539882 75.5 84.125 C79.88712902 89.52576172 84.41223412 94.799677 88.94921875 100.07421875 C95.19427321 107.33531003 101.3963115 114.63053429 107.4375 122.0625 C111.39508188 126.92629025 115.46542446 131.68381231 119.55834961 136.43334961 C123.33334391 140.8230035 127.00728461 145.28614771 130.65625 149.78125 C133.39302049 153.10186486 136.1910295 156.36546782 139 159.625 C142.55453161 163.74968204 146.06792143 167.89707712 149.5 172.125 C153.88712902 177.52576172 158.41223412 182.799677 162.94921875 188.07421875 C169.19427321 195.33531003 175.3963115 202.63053429 181.4375 210.0625 C184.89274304 214.3089257 188.42702204 218.47792359 192 222.625 C196.32868819 227.65008673 200.57885518 232.72792039 204.7578125 237.87890625 C206.40681707 239.89850592 208.06636621 241.90523591 209.7421875 243.90234375 C210.20157715 244.45003418 210.6609668 244.99772461 211.13427734 245.56201172 C212.43182456 247.10635734 213.73147933 248.64893149 215.03125 250.19140625 C217.08195485 252.7263053 217.88137471 254.01704537 218.5 257.1875 C217.71825074 262.56202619 214.49003684 265.59441873 211 269.625 C210.05925491 270.72601519 209.11919165 271.82761321 208.1796875 272.9296875 C206.11878027 275.34187055 204.04948728 277.74657942 201.9765625 280.1484375 C199.4357348 283.10225052 196.95472852 286.09898921 194.5 289.125 C190.5662143 293.97096789 186.51552241 298.70598528 182.44140625 303.43359375 C179.41041716 306.95817903 176.43007419 310.51548832 173.5 314.125 C169.11287098 319.52576172 164.58776588 324.799677 160.05078125 330.07421875 C153.80572679 337.33531003 147.6036885 344.63053429 141.5625 352.0625 C137.60491812 356.92629025 133.53457554 361.68381231 129.44165039 366.43334961 C126.41054711 369.95798919 123.43014684 373.51539882 120.5 377.125 C116.11287098 382.52576172 111.58776588 387.799677 107.05078125 393.07421875 C100.80572679 400.33531003 94.6036885 407.63053429 88.5625 415.0625 C84.60491812 419.92629025 80.53457554 424.68381231 76.44165039 429.43334961 C73.41054711 432.95798919 70.43014684 436.51539882 67.5 440.125 C63.11287098 445.52576172 58.58776588 450.799677 54.05078125 456.07421875 C47.80572679 463.33531003 41.6036885 470.63053429 35.5625 478.0625 C32.10725561 482.30892736 28.57294432 486.47789261 25 490.625 C16.22591796 500.31135161 16.22591796 500.31135161 8.66796875 510.87109375 C6.13322954 513.53642842 3.98288077 513.40136371 0.375 513.5625 C-3.83429107 513.42880325 -6.16673767 513.28249606 -9.5 510.65234375 C-11.4013321 508.27917372 -13.13524212 505.85402785 -14.81347656 503.31933594 C-16.97705515 500.22978133 -19.51232194 497.45462693 -22 494.625 C-26.30510112 489.64035896 -30.50501382 484.58259167 -34.65625 479.46875 C-37.39302049 476.14813514 -40.1910295 472.88453218 -43 469.625 C-46.55453161 465.50031796 -50.06792143 461.35292288 -53.5 457.125 C-57.88712902 451.72423828 -62.41223412 446.450323 -66.94921875 441.17578125 C-73.19427321 433.91468997 -79.3963115 426.61946571 -85.4375 419.1875 C-89.39508188 414.32370975 -93.46542446 409.56618769 -97.55834961 404.81665039 C-100.58945289 401.29201081 -103.56985316 397.73460118 -106.5 394.125 C-110.88712902 388.72423828 -115.41223412 383.450323 -119.94921875 378.17578125 C-126.19427321 370.91468997 -132.3963115 363.61946571 -138.4375 356.1875 C-142.39508188 351.32370975 -146.46542446 346.56618769 -150.55834961 341.81665039 C-153.58945289 338.29201081 -156.56985316 334.73460118 -159.5 331.125 C-163.88712902 325.72423828 -168.41223412 320.450323 -172.94921875 315.17578125 C-179.94969386 307.03636643 -186.85362025 298.8273092 -193.625 290.49609375 C-195.84777329 287.80902406 -198.11162401 285.16569188 -200.39575195 282.53100586 C-204.92718024 277.29636304 -209.41903109 272.02715301 -213.75 266.625 C-214.97976562 265.1090625 -214.97976562 265.1090625 -216.234375 263.5625 C-218.26797104 260.17917207 -218.59450649 258.50244499 -218 254.625 C-216.85546875 252.52734375 -216.85546875 252.52734375 -215.1875 250.5625 C-214.54683594 249.79292969 -213.90617187 249.02335938 -213.24609375 248.23046875 C-212.50488281 247.37066406 -211.76367188 246.51085937 -211 245.625 C-210.16597656 244.63113281 -209.33195312 243.63726562 -208.47265625 242.61328125 C-206.14412774 239.83880117 -203.79882684 237.07904548 -201.44824219 234.32324219 C-199.08571025 231.55288275 -196.7290972 228.7775287 -194.375 226 C-193.68603638 225.18728638 -193.68603638 225.18728638 -192.9831543 224.3581543 C-190.14027604 220.99645455 -187.33905455 217.60441308 -184.5625 214.1875 C-180.60491812 209.32370975 -176.53457554 204.56618769 -172.44165039 199.81665039 C-169.41054711 196.29201081 -166.43014684 192.73460118 -163.5 189.125 C-159.11287098 183.72423828 -154.58776588 178.450323 -150.05078125 173.17578125 C-143.80572679 165.91468997 -137.6036885 158.61946571 -131.5625 151.1875 C-127.60491812 146.32370975 -123.53457554 141.56618769 -119.44165039 136.81665039 C-116.41054711 133.29201081 -113.43014684 129.73460118 -110.5 126.125 C-106.11287098 120.72423828 -101.58776588 115.450323 -97.05078125 110.17578125 C-90.80572679 102.91468997 -84.6036885 95.61946571 -78.5625 88.1875 C-74.60491812 83.32370975 -70.53457554 78.56618769 -66.44165039 73.81665039 C-63.41054711 70.29201081 -60.43014684 66.73460118 -57.5 63.125 C-53.11287098 57.72423828 -48.58776588 52.450323 -44.05078125 47.17578125 C-37.80572679 39.91468997 -31.6036885 32.61946571 -25.5625 25.1875 C-22.01066096 20.8292975 -18.39983689 16.52613033 -14.75 12.25 C-14.25443604 11.66677979 -13.75887207 11.08355957 -13.24829102 10.48266602 C-4.19222573 -0.08452068 -4.19222573 -0.08452068 0 0 Z " fill="#33FE5F" transform="translate(256,-0.625)"/>
<path d="M0 0 C0 43.56 0 87.12 0 132 C1.65 132.66 3.3 133.32 5 134 C7.04183876 135.93632475 8.89483294 137.83833519 10.75 139.9375 C11.5387854 140.81148438 11.5387854 140.81148438 12.34350586 141.703125 C16.27380353 146.09176816 20.03806653 150.60475839 23.73046875 155.1953125 C26.2365667 158.29234921 28.79683106 161.33797756 31.375 164.375 C31.83511475 164.91753418 32.29522949 165.46006836 32.76928711 166.01904297 C34.17877222 167.68000279 35.58921782 169.34014179 37 171 C42.19219022 177.10888035 47.38123581 183.21510641 52.4375 189.4375 C56.84913055 194.85570579 61.39323642 200.1527085 65.94921875 205.44921875 C72.94303811 213.58089496 79.84142526 221.78142964 86.60546875 230.10546875 C89.92253565 234.11516953 93.32531475 238.04995741 96.75170898 241.96655273 C98.19092891 243.62655795 99.60258583 245.30467987 101 247 C101.48533203 247.58330078 101.97066406 248.16660156 102.47070312 248.76757812 C104.72775467 251.65952462 105.91474359 253.47812743 106.515625 257.15625 C105.90804739 260.50713257 104.97100917 261.93590811 102.75 264.5 C102.02167969 265.35722656 101.29335938 266.21445312 100.54296875 267.09765625 C99.70378906 268.05542969 98.86460937 269.01320313 98 270 C97.03626365 271.12241449 96.07409124 272.24617322 95.11328125 273.37109375 C93.57690922 275.16865896 92.03901219 276.96474879 90.49511719 278.75585938 C87.44380067 282.2962304 84.44538618 285.87038617 81.5 289.5 C77.5662143 294.34596789 73.51552241 299.08098528 69.44140625 303.80859375 C66.41041716 307.33317903 63.43007419 310.89048832 60.5 314.5 C56.11287098 319.90076172 51.58776588 325.174677 47.05078125 330.44921875 C40.80572679 337.71031003 34.6036885 345.00553429 28.5625 352.4375 C24.08737332 357.9311591 19.5042264 363.3248732 14.85546875 368.671875 C13.08701971 370.7106416 11.40350932 372.76235424 9.73828125 374.890625 C9.08214844 375.71046875 8.42601562 376.5303125 7.75 377.375 C7.20859375 378.08398438 6.6671875 378.79296875 6.109375 379.5234375 C3.45395219 381.38223347 1.20012741 381.61263226 -2.01123047 381.45410156 C-5.45494637 380.66778784 -7.33027603 378.32825429 -9.4375 375.6875 C-9.90357666 375.14206543 -10.36965332 374.59663086 -10.84985352 374.03466797 C-12.25785794 372.37522561 -13.63143739 370.69203187 -15 369 C-15.7528125 368.09121094 -16.505625 367.18242187 -17.28125 366.24609375 C-18.73714174 364.47634129 -20.18356273 362.69876111 -21.62109375 360.9140625 C-24.35905042 357.56017798 -27.17216465 354.2780711 -30 351 C-33.55475873 346.87552198 -37.06792942 342.72791303 -40.5 338.5 C-44.88712902 333.09923828 -49.41223412 327.825323 -53.94921875 322.55078125 C-60.19427321 315.28968997 -66.3963115 307.99446571 -72.4375 300.5625 C-75.89274609 296.31607054 -79.42710949 292.14715512 -83 288 C-87.36808441 282.92718605 -91.67534916 277.8139195 -95.88671875 272.609375 C-97.35506365 270.79633545 -98.83795309 268.99501774 -100.33203125 267.203125 C-101.43611328 265.86507812 -101.43611328 265.86507812 -102.5625 264.5 C-103.22378906 263.7059375 -103.88507813 262.911875 -104.56640625 262.09375 C-106 260 -106 260 -106 257 C-142.96 257 -179.92 257 -218 257 C-216.92229145 251.61145726 -215.03734741 249.27426846 -211.5 245.375 C-210.39479778 244.12330943 -209.29063959 242.87069629 -208.1875 241.6171875 C-207.36958984 240.69437988 -207.36958984 240.69437988 -206.53515625 239.75292969 C-204.46111631 237.38467161 -202.47705488 234.94951285 -200.5 232.5 C-196.5662143 227.65403211 -192.51552241 222.91901472 -188.44140625 218.19140625 C-185.41041716 214.66682097 -182.43007419 211.10951168 -179.5 207.5 C-175.11287098 202.09923828 -170.58776588 196.825323 -166.05078125 191.55078125 C-159.80572679 184.28968997 -153.6036885 176.99446571 -147.5625 169.5625 C-143.60491812 164.69870975 -139.53457554 159.94118769 -135.44165039 155.19165039 C-132.41054711 151.66701081 -129.43014684 148.10960118 -126.5 144.5 C-122.11287098 139.09923828 -117.58776588 133.825323 -113.05078125 128.55078125 C-106.80572679 121.28968997 -100.6036885 113.99446571 -94.5625 106.5625 C-90.60491812 101.69870975 -86.53457554 96.94118769 -82.44165039 92.19165039 C-79.41054711 88.66701081 -76.43014684 85.10960118 -73.5 81.5 C-69.11287098 76.09923828 -64.58776588 70.825323 -60.05078125 65.55078125 C-53.80572679 58.28968997 -47.6036885 50.99446571 -41.5625 43.5625 C-37.15203526 38.14572601 -32.60905849 32.85014793 -28.0546875 27.5546875 C-25.10866014 24.12920495 -22.17306723 20.6950983 -19.25 17.25 C-18.57360474 16.45311768 -18.57360474 16.45311768 -17.88354492 15.64013672 C-14.34120503 11.44695108 -10.92304598 7.16484098 -7.55859375 2.828125 C-5.00321784 -0.16915803 -4.10525032 0 0 0 Z " fill="#65FF68" transform="translate(256,0)"/>
<path d="M0 0 C36.96 0 73.92 0 112 0 C112.99 1.98 113.98 3.96 115 6 C116.31044907 7.84675488 116.31044907 7.84675488 117.75 9.41015625 C118.53068848 10.29622559 118.53068848 10.29622559 119.32714844 11.20019531 C119.87918945 11.81475586 120.43123047 12.42931641 121 13.0625 C122.17252111 14.39135726 123.34438501 15.72079468 124.515625 17.05078125 C125.10150391 17.71287598 125.68738281 18.3749707 126.29101562 19.05712891 C128.81327598 21.9245786 131.28676661 24.83181934 133.75 27.75 C134.20125244 28.28383301 134.65250488 28.81766602 135.11743164 29.36767578 C137.92413653 32.69766464 140.68998957 36.05860476 143.4375 39.4375 C147.39508188 44.30129025 151.46542446 49.05881231 155.55834961 53.80834961 C158.58945289 57.33298919 161.56985316 60.89039882 164.5 64.5 C168.88712902 69.90076172 173.41223412 75.174677 177.94921875 80.44921875 C184.19427321 87.71031003 190.3963115 95.00553429 196.4375 102.4375 C197.95651257 104.2931586 199.47751568 106.14718874 201 108 C201.73017334 108.89380371 201.73017334 108.89380371 202.47509766 109.80566406 C204.05640452 111.73341776 205.65171097 113.64881396 207.25 115.5625 C207.74556396 116.17085693 208.24112793 116.77921387 208.75170898 117.40600586 C209.47015991 118.25884155 209.47015991 118.25884155 210.203125 119.12890625 C210.62239258 119.63494385 211.04166016 120.14098145 211.47363281 120.66235352 C213.36093745 122.46591924 213.36093745 122.46591924 218 124 C218 167.23 218 210.46 218 255 C211 255 211 255 208.76953125 253.0859375 C208.12371094 252.19132813 207.47789062 251.29671875 206.8125 250.375 C206.05582031 249.37210938 205.29914063 248.36921875 204.51953125 247.3359375 C204.11686035 246.79420898 203.71418945 246.25248047 203.29931641 245.69433594 C200.99397847 242.68812675 198.48653863 239.85644018 196 237 C191.69756857 232.01298354 187.49506792 226.95769236 183.34375 221.84375 C180.60697951 218.52313514 177.8089705 215.25953218 175 212 C171.44546839 207.87531796 167.93207857 203.72792288 164.5 199.5 C160.11287098 194.09923828 155.58776588 188.825323 151.05078125 183.55078125 C144.80572679 176.28968997 138.6036885 168.99446571 132.5625 161.5625 C128.60491812 156.69870975 124.53457554 151.94118769 120.44165039 147.19165039 C117.41054711 143.66701081 114.43014684 140.10960118 111.5 136.5 C107.11287098 131.09923828 102.58776588 125.825323 98.05078125 120.55078125 C91.80572679 113.28968997 85.6036885 105.99446571 79.5625 98.5625 C75.60491812 93.69870975 71.53457554 88.94118769 67.44165039 84.19165039 C64.41054711 80.66701081 61.43014684 77.10960118 58.5 73.5 C54.11287098 68.09923828 49.58776588 62.825323 45.05078125 57.55078125 C38.05030614 49.41136643 31.14637975 41.2023092 24.375 32.87109375 C22.15211935 30.18389428 19.88794067 27.54055721 17.60424805 24.90527344 C13.03666562 19.63103574 8.55067834 14.30759507 4.25 8.8125 C3.60430054 8.00159912 3.60430054 8.00159912 2.94555664 7.17431641 C0 3.35539277 0 3.35539277 0 0 Z " fill="#33FF5F" transform="translate(38,257)"/>
<path d="M0 0 C36.96 0 73.92 0 112 0 C110.93159445 5.34202774 109.12569778 7.63564958 105.625 11.5 C104.52686542 12.74567223 103.42921994 13.99177579 102.33203125 15.23828125 C101.77467285 15.86557129 101.21731445 16.49286133 100.64306641 17.13916016 C98.15795385 19.95365167 95.7328688 22.81733197 93.3125 25.6875 C92.63006226 26.49392944 92.63006226 26.49392944 91.93383789 27.31665039 C89.10824335 30.66228052 86.32481418 34.03925737 83.5625 37.4375 C79.15086945 42.85570579 74.60676358 48.1527085 70.05078125 53.44921875 C63.80572679 60.71031003 57.6036885 68.00553429 51.5625 75.4375 C47.60491812 80.30129025 43.53457554 85.05881231 39.44165039 89.80834961 C36.41054711 93.33298919 33.43014684 96.89039882 30.5 100.5 C26.11287098 105.90076172 21.58776588 111.174677 17.05078125 116.44921875 C10.80572679 123.71031003 4.6036885 131.00553429 -1.4375 138.4375 C-5.39508188 143.30129025 -9.46542446 148.05881231 -13.55834961 152.80834961 C-16.58945289 156.33298919 -19.56985316 159.89039882 -22.5 163.5 C-26.88712902 168.90076172 -31.41223412 174.174677 -35.94921875 179.44921875 C-42.19427321 186.71031003 -48.3963115 194.00553429 -54.4375 201.4375 C-58.39508188 206.30129025 -62.46542446 211.05881231 -66.55834961 215.80834961 C-70.33096339 220.19523538 -74.00326632 224.65493557 -77.6484375 229.1484375 C-80.93007583 233.12783282 -84.2991786 237.03028127 -87.68823242 240.91845703 C-91.16387923 244.93101054 -94.31285075 249.064616 -97.20703125 253.5234375 C-99 255 -99 255 -106 255 C-106 211.77 -106 168.54 -106 124 C-103.525 123.01 -103.525 123.01 -101 122 C-98.55620957 119.77713654 -98.55620957 119.77713654 -96.25 117.0625 C-95.8173584 116.57305908 -95.3847168 116.08361816 -94.93896484 115.5793457 C-91.32351315 111.45767798 -87.85804083 107.21464068 -84.4140625 102.94921875 C-81.66138127 99.5863153 -78.83818231 96.29070431 -76 93 C-72.44528455 88.87548294 -68.93207214 84.72791495 -65.5 80.5 C-61.5662143 75.65403211 -57.51552241 70.91901472 -53.44140625 66.19140625 C-50.41041716 62.66682097 -47.43007419 59.10951168 -44.5 55.5 C-40.5662143 50.65403211 -36.51552241 45.91901472 -32.44140625 41.19140625 C-28.67010644 36.80595075 -24.99866731 32.34808337 -21.35546875 27.85546875 C-18.55758167 24.46366866 -15.68732695 21.13904136 -12.8125 17.8125 C-5.21190517 9.63583228 -5.21190517 9.63583228 0 0 Z " fill="#2ECC29" transform="translate(362,257)"/>
<path d="M0 0 C5.53541303 1.10708261 7.24653158 2.85150774 10.75 6.875 C11.27585693 7.46216797 11.80171387 8.04933594 12.34350586 8.65429688 C16.26412905 13.06551956 20.03163946 17.59676798 23.73046875 22.1953125 C26.2365667 25.29234921 28.79683106 28.33797756 31.375 31.375 C31.83511475 31.91753418 32.29522949 32.46006836 32.76928711 33.01904297 C34.17877222 34.68000279 35.58921782 36.34014179 37 38 C42.19219022 44.10888035 47.38123581 50.21510641 52.4375 56.4375 C56.84913055 61.85570579 61.39323642 67.1527085 65.94921875 72.44921875 C72.94303811 80.58089496 79.84142526 88.78142964 86.60546875 97.10546875 C89.92253565 101.11516953 93.32531475 105.04995741 96.75170898 108.96655273 C98.19092891 110.62655795 99.60258583 112.30467987 101 114 C101.48533203 114.58330078 101.97066406 115.16660156 102.47070312 115.76757812 C104.72775467 118.65952462 105.91474359 120.47812743 106.515625 124.15625 C105.90804739 127.50713257 104.97100917 128.93590811 102.75 131.5 C102.02167969 132.35722656 101.29335938 133.21445312 100.54296875 134.09765625 C99.70378906 135.05542969 98.86460937 136.01320313 98 137 C97.03626365 138.12241449 96.07409124 139.24617322 95.11328125 140.37109375 C93.57690922 142.16865896 92.03901219 143.96474879 90.49511719 145.75585938 C87.44380067 149.2962304 84.44538618 152.87038617 81.5 156.5 C77.5662143 161.34596789 73.51552241 166.08098528 69.44140625 170.80859375 C66.41041716 174.33317903 63.43007419 177.89048832 60.5 181.5 C56.11287098 186.90076172 51.58776588 192.174677 47.05078125 197.44921875 C40.80572679 204.71031003 34.6036885 212.00553429 28.5625 219.4375 C23.61459082 225.51154622 18.52319408 231.45596282 13.39404297 237.37695312 C12.11308423 238.86833907 10.85423676 240.37864195 9.59765625 241.890625 C8.90542969 242.71046875 8.21320313 243.5303125 7.5 244.375 C6.9121875 245.08398438 6.324375 245.79296875 5.71875 246.5234375 C4 248 4 248 0 248 C0 166.16 0 84.32 0 0 Z " fill="#65FE69" transform="translate(256,133)"/>
<path d="M0 0 C0 81.84 0 163.68 0 248 C-5.52434356 246.89513129 -6.22612812 246.19012018 -9.75 242.125 C-10.1826416 241.63104736 -10.6152832 241.13709473 -11.06103516 240.62817383 C-14.66547329 236.48221459 -18.13503333 232.22321843 -21.5859375 227.94921875 C-24.33861873 224.5863153 -27.16181769 221.29070431 -30 218 C-33.55471545 213.87548294 -37.06792786 209.72791495 -40.5 205.5 C-44.88712902 200.09923828 -49.41223412 194.825323 -53.94921875 189.55078125 C-60.19427321 182.28968997 -66.3963115 174.99446571 -72.4375 167.5625 C-75.89274609 163.31607054 -79.42710949 159.14715512 -83 155 C-87.3700682 149.9248822 -91.68463301 144.81377365 -95.88671875 139.59765625 C-97.34009651 137.81115678 -98.82390745 136.04912524 -100.33203125 134.30859375 C-101.43611328 133.01115234 -101.43611328 133.01115234 -102.5625 131.6875 C-103.22378906 130.92824219 -103.88507813 130.16898438 -104.56640625 129.38671875 C-106.41417334 126.31046347 -106.49459881 124.53615039 -106 121 C-104.671875 118.71875 -104.671875 118.71875 -102.75 116.5 C-102.02167969 115.64277344 -101.29335937 114.78554687 -100.54296875 113.90234375 C-99.70378906 112.94457031 -98.86460937 111.98679687 -98 111 C-97.03626365 109.87758551 -96.07409124 108.75382678 -95.11328125 107.62890625 C-93.57690922 105.83134104 -92.03901219 104.03525121 -90.49511719 102.24414062 C-87.44380067 98.7037696 -84.44538618 95.12961383 -81.5 91.5 C-77.11287098 86.09923828 -72.58776588 80.825323 -68.05078125 75.55078125 C-61.80572679 68.28968997 -55.6036885 60.99446571 -49.5625 53.5625 C-45.60491812 48.69870975 -41.53457554 43.94118769 -37.44165039 39.19165039 C-34.41054711 35.66701081 -31.43014684 32.10960118 -28.5 28.5 C-23.57740191 22.44279218 -18.50415146 16.52205476 -13.39404297 10.62304688 C-12.11308423 9.13166093 -10.85423676 7.62135805 -9.59765625 6.109375 C-8.90542969 5.28953125 -8.21320313 4.4696875 -7.5 3.625 C-6.9121875 2.91601562 -6.324375 2.20703125 -5.71875 1.4765625 C-4 0 -4 0 0 0 Z " fill="#98FF9F" transform="translate(256,133)"/>
</svg>
